<?xml version="1.0" encoding="UTF-8"?>
<svg id="katman_2" data-name="katman 2" xmlns="http://www.w3.org/2000/svg" viewBox="0 0 629.26 610.33">
  <defs>
    <style>
      .cls-1 {
        fill: #fff;
      }
    </style>
  </defs>
  <g id="katman_2-2" data-name="katman 2">
    <g id="Layer_1" data-name="Layer 1">
      <g>
        <g>
          <g>
            <path class="cls-1" d="M402.72,392.36l-25.17,43.59-25.16,43.59H.01s.01,0,.01,0c40.34-69.9,85.48-148.07,125.84-217.96C174.85,176.67,227.86,84.91,276.87,0c12.55,21.73,37.79,65.46,50.34,87.19-40.35,69.9-85.49,148.08-125.85,217.97h0c-12.55,21.74-37.8,65.47-50.34,87.2h251.7Z"/>
            <g>
              <path class="cls-1" d="M377.55,435.95l-25.16,43.59H.01s.01,0,.01,0l25.16-43.59h352.37Z"/>
              <path class="cls-1" d="M402.72,392.36l-25.17,43.59H25.18s25.16-43.59,25.17-43.59h352.37Z"/>
              <polygon class="cls-1" points="176.19 348.76 151.02 392.36 50.35 392.36 75.52 348.76 176.19 348.76"/>
              <path class="cls-1" d="M201.36,305.17l-25.17,43.59h-100.67s25.16-43.59,25.17-43.59h100.67Z"/>
              <polygon class="cls-1" points="226.53 261.57 201.36 305.16 201.36 305.17 100.69 305.17 125.86 261.58 125.86 261.57 226.53 261.57"/>
              <polygon class="cls-1" points="251.7 217.98 226.53 261.57 125.86 261.57 151.02 217.98 251.7 217.98"/>
              <polygon class="cls-1" points="276.87 174.38 251.7 217.98 151.02 217.98 176.19 174.38 276.87 174.38"/>
              <polygon class="cls-1" points="302.04 130.79 276.87 174.38 176.19 174.38 201.36 130.79 302.04 130.79"/>
              <polygon class="cls-1" points="327.21 87.19 302.04 130.79 201.36 130.79 226.53 87.19 327.21 87.19"/>
              <polygon class="cls-1" points="327.2 87.19 226.52 87.19 251.69 43.6 302.03 43.6 327.2 87.19"/>
              <polygon class="cls-1" points="302.03 43.6 251.69 43.6 276.86 0 302.03 43.6"/>
            </g>
          </g>
          <g>
            <path class="cls-1" d="M402.72,392.36l-25.17,43.59-25.16,43.59c-50.27,0-297.17.01-352.39.01h.01c12.55-21.75,37.8-65.45,50.33-87.19C124.98,263.09,202.23,129.27,276.87,0c12.55,21.73,37.79,65.46,50.34,87.19-40.35,69.9-85.49,148.08-125.85,217.97h0c-12.55,21.74-37.8,65.47-50.34,87.2h251.7Z"/>
            <g>
              <polygon class="cls-1" points="302.04 43.6 327.21 87.19 302.04 130.79 276.87 87.2 276.87 87.19 251.7 43.6 276.87 0 302.04 43.6"/>
              <path class="cls-1" d="M276.87,87.2l25.17,43.59-25.17,43.59c-12.55-21.73-37.8-65.46-50.34-87.19l25.17-43.59,25.17,43.59h0Z"/>
              <polygon class="cls-1" points="251.7 130.79 276.87 174.38 251.7 217.98 226.53 174.39 226.53 174.38 201.36 130.79 226.53 87.19 251.7 130.79"/>
              <polygon class="cls-1" points="402.72 392.36 377.55 435.95 377.54 435.95 352.38 392.36 402.72 392.36"/>
              <path class="cls-1" d="M226.53,174.39l25.17,43.59-25.17,43.59c-12.55-21.73-37.8-65.46-50.34-87.19l25.17-43.59,25.17,43.59h0Z"/>
              <path class="cls-1" d="M377.55,435.95l-25.16,43.59h-.01c-12.55-21.73-37.8-65.46-50.34-87.18h50.34l25.16,43.59h.01Z"/>
              <polygon class="cls-1" points="201.36 217.98 226.53 261.57 201.36 305.16 176.19 261.58 176.19 261.57 151.02 217.98 176.19 174.38 201.36 217.98"/>
              <path class="cls-1" d="M352.38,479.54h-50.34c-12.55-21.73-37.8-65.46-50.34-87.18h50.34c12.55,21.73,37.8,65.46,50.34,87.18Z"/>
              <path class="cls-1" d="M201.36,305.17l-25.17,43.59c-12.56-21.74-37.79-65.46-50.34-87.19l25.17-43.59,25.17,43.59h0l25.17,43.59h0Z"/>
              <path class="cls-1" d="M302.04,479.54c-12.55,0-37.8.01-50.34.01h-.01c-12.54-21.74-37.79-65.47-50.33-87.19h50.34c12.55,21.73,37.8,65.46,50.34,87.18Z"/>
              <path class="cls-1" d="M176.19,348.76l-25.17,43.6-25.17-43.59h0l-25.17-43.59s25.17-43.61,25.17-43.61c12.55,21.72,37.79,65.47,50.34,87.19Z"/>
              <path class="cls-1" d="M251.7,479.54h-50.34s0,0,0,0c0,0-25.17-43.58-25.16-43.59l-25.17-43.59h50.34c12.55,21.73,37.79,65.45,50.33,87.18h.01Z"/>
              <polygon class="cls-1" points="100.68 305.17 201.36 479.55 151.02 479.55 75.51 348.76 100.68 305.17"/>
              <polygon class="cls-1" points="75.51 348.76 151.02 479.55 100.68 479.55 50.34 392.36 75.51 348.76"/>
              <polygon class="cls-1" points="50.34 392.36 100.68 479.55 50.35 479.55 25.18 435.95 50.34 392.36"/>
              <polygon class="cls-1" points="25.18 435.95 50.35 479.55 0 479.55 25.18 435.95"/>
            </g>
          </g>
          <g>
            <path class="cls-1" d="M402.72,392.36l-25.17,43.59-25.16,43.59H0l50.34-87.17h0C124.98,263.09,202.23,129.27,276.87,0c12.55,21.73,37.79,65.46,50.34,87.19-40.35,69.9-85.49,148.08-125.85,217.97h0c-12.55,21.74-37.8,65.47-50.34,87.2h251.7Z"/>
            <g>
              <polygon class="cls-1" points="276.87 0 0 479.54 50.35 479.55 302.04 43.6 276.87 0"/>
              <path class="cls-1" d="M327.21,87.19c-40.35,69.9-85.49,148.08-125.85,217.97h0c-12.55,21.74-37.8,65.47-50.34,87.2h0s-25.17,43.58-25.16,43.59l-25.17,43.59h-50.33s25.17-43.58,25.16-43.59h.01l25.16-43.59h.01s25.17-43.59,25.16-43.6h0c12.54-21.73,37.78-65.46,50.33-87.18h0c12.54-21.74,37.78-65.47,50.33-87.19h0c12.55-21.74,37.8-65.47,50.34-87.19h0l25.17-43.6,25.17,43.59h0Z"/>
              <path class="cls-1" d="M201.36,392.36l-25.16,43.59h0l-25.16,43.59h-50.35l25.17-43.59,25.16-43.59h50.35,0Z"/>
              <path class="cls-1" d="M251.7,392.36c-12.55,21.73-37.8,65.46-50.34,87.18h-50.33s25.17-43.58,25.16-43.59h0l25.16-43.59h50.34Z"/>
              <path class="cls-1" d="M302.04,392.36c-12.55,21.73-37.8,65.46-50.34,87.18h-50.34c12.55-21.73,37.8-65.46,50.34-87.18h50.34Z"/>
              <path class="cls-1" d="M352.38,392.36c-12.55,21.73-37.79,65.45-50.33,87.18h-.01c-12.55.01-37.8,0-50.34,0,12.55-21.73,37.8-65.46,50.34-87.18h50.34Z"/>
              <path class="cls-1" d="M402.72,392.36l-25.17,43.59-25.16,43.59h-50.35s.01,0,.01,0c12.54-21.73,37.79-65.46,50.33-87.18h50.34Z"/>
            </g>
          </g>
        </g>
        <g>
          <g>
            <path class="cls-1" d="M629.24,610.32H75.52s.01,0,.01,0c40.58-70.31,85.22-147.62,125.84-217.96,22.4-38.84,53.08-91.96,75.5-130.79h151.02c12.55,21.73,37.79,65.46,50.33,87.19h-151.01l-25.17,43.59h100.68l25.17,43.59h0l25.17,43.6h-201.36l-25.17,43.6h352.38c14.28,24.73,36.22,62.73,50.32,87.18h.01,0Z"/>
            <g>
              <polygon class="cls-1" points="629.24 610.33 75.51 610.33 100.68 566.73 604.07 566.73 629.24 610.33"/>
              <path class="cls-1" d="M604.08,566.73H100.69c6.24-10.8,18.98-32.89,25.17-43.59h453.05l25.17,43.59h0Z"/>
              <polygon class="cls-1" points="251.7 479.54 226.53 523.14 125.86 523.14 151.03 479.54 251.7 479.54"/>
              <path class="cls-1" d="M453.06,479.54H151.03s25.16-43.59,25.17-43.59h251.69l25.17,43.59h0Z"/>
              <polygon class="cls-1" points="427.89 435.94 427.89 435.95 176.2 435.95 201.37 392.36 201.37 392.35 402.72 392.35 427.89 435.94"/>
              <polygon class="cls-1" points="327.21 348.76 302.04 392.35 201.37 392.35 226.53 348.76 327.21 348.76"/>
              <polygon class="cls-1" points="478.22 348.76 226.53 348.76 251.7 305.16 453.06 305.16 478.22 348.76"/>
              <polygon class="cls-1" points="453.06 305.16 251.7 305.16 276.87 261.57 427.89 261.57 453.06 305.16"/>
            </g>
          </g>
        </g>
      </g>
    </g>
  </g>
</svg>
